<?xml version="1.0" ?><!DOCTYPE svg  PUBLIC '-//W3C//DTD SVG 1.1//EN'  'http://www.w3.org/Graphics/SVG/1.1/DTD/svg11.dtd'><svg height="512px" style="enable-background:new 0 0 512 512;" version="1.1" viewBox="0 0 512 512" width="512px" xml:space="preserve" xmlns="http://www.w3.org/2000/svg" xmlns:xlink="http://www.w3.org/1999/xlink"><g id="_x36_53_x2C__Company_x2C__employee_x2C__group_x2C__people_x2C__team"><g><path fill="white" d="M387.36,215.387c-1.989,1.922-4.092,3.686-6.355,5.291l-0.179,0.113    c-8.707,6.128-19.313,9.724-30.732,9.724c-3.955,0-7.869-0.452-11.624-1.289c-2.779-0.61-5.472-1.446-8.048-2.464    c-1.133,4.092-1.765,8.412-1.765,12.889c0,13.116,5.292,24.988,13.838,33.627l0.158,0.135c8.64,8.639,20.601,13.998,33.786,13.998    c13.182,0,25.124-5.359,33.782-13.998c8.641-8.638,13.975-20.578,13.975-33.762c0-3.414-0.337-6.738-1.018-9.928    c-7.212-0.09-14.063-1.582-20.306-4.25C397.106,223.029,391.885,219.593,387.36,215.387 M391.681,210.66l-0.407,0.498    c4.025,3.754,8.729,6.807,13.863,9c5.063,2.148,10.605,3.46,16.417,3.73l-0.046-0.112l-0.045-0.136l-0.092-0.271l-0.066-0.158    l-0.024-0.09l-0.383-0.996l-0.024-0.021l-0.18-0.498l-0.024-0.023l-0.179-0.475l-0.046-0.068l-0.228-0.52l-0.066-0.158    l-0.407-0.904l-0.021-0.068l-0.478-0.972l0,0l-0.249-0.476l-0.021-0.045l-0.225-0.43l-0.046-0.09    c-0.432-0.838-0.905-1.674-1.404-2.465l-0.021-0.046c-1.99-3.278-4.366-6.31-7.079-9c-3.165-3.188-6.783-5.901-10.763-8.095    c-0.998,2.352-2.148,4.635-3.461,6.783c-0.611,1.041-1.288,2.035-1.99,3.053v0.023l-0.52,0.723l-0.07,0.09l0,0l-0.088,0.113    l-0.069,0.091l-0.067,0.113l-0.091,0.091l0,0l-0.066,0.113l-0.067,0.09l-0.091,0.113l-0.07,0.09l0,0l-0.087,0.113l-0.07,0.091    l-0.067,0.091l-0.157,0.203l-0.092,0.113l-0.066,0.09l-0.092,0.113l0,0l-0.066,0.091l-0.092,0.112l-0.066,0.091l-0.091,0.091    v0.022l-0.067,0.091L391.681,210.66z M346.113,313.89l-1.4,26.978h61.666l-0.951-27.725l-29.146,26.051    c-1.063,1.041-2.783,1.041-3.847,0.023L346.113,313.89z M410.948,312.262l1.06,31.297c0.046,1.537-1.151,2.804-2.688,2.85    l-67.522,0.021c-1.541,0-2.783-1.243-2.783-2.781l1.649-31.636l-57.412,25.01v49.931h184.522v-49.931L410.948,312.262z     M396.496,289.309c-6.194,2.511-12.979,3.89-20.057,3.89c-7.689,0-14.972-1.628-21.573-4.522v25.915l19.559,18.814l22.071-19.742    V289.309z M97.167,221.312c2.373,0.949,4.84,1.718,7.395,2.284c3.299,0.746,6.784,1.13,10.377,1.13    c10.199,0,19.653-3.21,27.409-8.638l0.158-0.113c2.713-1.922,5.201-4.093,7.44-6.513l0.021-0.022l0.046-0.045l0.021-0.046    l0.07-0.067l0.066-0.046l0.091-0.112l0.067-0.068l0.024-0.045l0.495-0.566l0.025-0.021l0.091-0.068l0.087-0.113l0.478-0.564    l0.088-0.113l0.07-0.091l0.046-0.044l0.087-0.113l0.091-0.113l0.046-0.046l0.045-0.067l0.091-0.113l0.091-0.113l0.042-0.045    l0.046-0.068l0.116-0.112l0.087-0.113V206.5l0.091-0.113l0.091-0.113l0.091-0.113l0,0l0.088-0.113l0.091-0.135l0.066-0.09    l0.024-0.023l0.091-0.113l0.088-0.113l0.045-0.067l0.046-0.068l0.091-0.112c0.881-1.199,1.72-2.443,2.509-3.754    c0.951-1.605,1.832-3.256,2.601-4.952l0.045-0.113l0.52-1.222c-4.113-1.65-8.524-2.735-13.115-3.188l0,0l-0.294-0.023h-0.046    l-0.158-0.023l-0.362-0.021l-0.133-0.022l-0.656-0.046h-0.091h-0.066l-0.183-0.021h-0.045h-0.112h-0.158l0,0l-0.183-0.023h-0.112    h-0.045h-0.158h-0.091l-0.088-0.022h-0.158h-0.046h-0.137h-0.158l0,0h-0.158l-0.137-0.022h-0.046h-0.158h-0.091h-0.088h-0.161    h-0.042h-0.137h-0.158h-0.478h-0.133l-0.34,0.022h-0.271h-0.203l-0.432,0.022h-0.042l-0.477,0.023h-0.091h-0.042l-0.569,0.021    l-0.246,0.023l-0.34,0.022l-0.137,0.022l-0.453,0.021l-0.021,0.023l-0.453,0.023l-0.158,0.021l-0.316,0.023l-0.295,0.045    l-0.158,0.022l-0.428,0.045h-0.046l-0.453,0.068l-0.091,0.022l-0.361,0.045l-0.249,0.023l-0.59,0.113h-0.088l-0.453,0.09h-0.045    l-0.59,0.113l-0.27,0.045l-0.316,0.068l-0.565,0.112l-0.024,0.022c-9.09,1.969-17.208,6.559-23.539,12.89    C103.112,210.254,99.585,215.5,97.167,221.312z M152.207,215.387c-1.99,1.922-4.092,3.686-6.356,5.291l-0.179,0.113    c-8.707,6.128-19.313,9.724-30.733,9.724c-3.955,0-7.847-0.452-11.623-1.289c-2.759-0.61-5.451-1.446-8.051-2.464    c-1.13,4.092-1.74,8.412-1.74,12.889c0,13.184,5.338,25.124,13.975,33.762c8.64,8.639,20.601,13.998,33.786,13.998    c13.182,0,25.146-5.359,33.782-13.998c8.641-8.638,14-20.578,14-33.762c0-3.414-0.361-6.717-1.042-9.928    c-7.191-0.09-14.042-1.582-20.306-4.25C161.977,223.029,156.73,219.593,152.207,215.387z M156.208,211.067l-0.067,0.091    c4.025,3.754,8.707,6.807,13.838,9c5.068,2.148,10.606,3.46,16.417,3.73c-0.204-0.587-0.428-1.175-0.653-1.764v-0.021    c-0.365-0.883-0.748-1.787-1.154-2.646l-0.025-0.068l-0.225-0.452v-0.022c-2.351-4.885-5.496-9.271-9.272-13.048    c-3.187-3.188-6.805-5.901-10.785-8.095c-0.972,2.352-2.148,4.635-3.439,6.783c-0.631,1.041-1.288,2.035-1.99,3.053l-0.021,0.023    l-0.52,0.723l-0.07,0.09l0,0l-0.066,0.113l-0.091,0.091l-0.067,0.113l-0.066,0.091l0,0l-0.091,0.113l-0.07,0.09l-0.066,0.113    l-0.091,0.09l0,0l-0.067,0.113l-0.091,0.091l-0.066,0.091l-0.158,0.203l-0.066,0.113l-0.091,0.09l-0.07,0.113H157l-0.067,0.091    l-0.091,0.112l-0.067,0.091l-0.07,0.091l-0.021,0.022l-0.07,0.091l-0.087,0.09l-0.07,0.09l-0.158,0.204L156.208,211.067z     M110.959,313.89l-1.4,26.978h61.666l-0.951-27.725l-29.146,26.051c-1.063,1.041-2.758,1.041-3.846,0.023L110.959,313.89z     M175.791,312.262l1.063,31.297c0.046,1.537-1.151,2.804-2.688,2.85l-67.526,0.021c-1.537,0-2.779-1.243-2.779-2.781l1.649-31.636    l-57.391,25.01v49.931h184.522v-49.931L175.791,312.262z M161.342,313.663v-24.354c-6.194,2.511-12.957,3.89-20.057,3.89    c-7.668,0-14.972-1.628-21.573-4.544v25.937l19.559,18.814L161.342,313.663z M215.072,111.162    c2.373,0.973,4.861,1.742,7.395,2.307c3.299,0.725,6.784,1.108,10.377,1.108c10.223,0,19.674-3.188,27.409-8.616l0.158-0.136    c2.688-1.899,5.177-4.069,7.416-6.467l0.249-0.271l0.091-0.112l0.067-0.068l0.045-0.045l0.092-0.113l0.091-0.091l0.042-0.067    l0.07-0.046l0.092-0.113l0.087-0.112l0.046-0.045l0.07-0.068l0.088-0.113l0.091-0.113l0.024-0.022l0.088-0.091l0.092-0.113    l0.091-0.112l0,0l0.092-0.112l0.112-0.113l0.066-0.09l0.024-0.023l0.088-0.113l0.091-0.113l0.046-0.067l0.046-0.046l0.091-0.113    l0.092-0.135l0.042-0.045l0.07-0.068l0.087-0.113l0.092-0.113l0.024-0.022l0.066-0.091l0.092-0.113l0.091-0.135l0,0l0.088-0.113    l0.091-0.113l0.067-0.09l0.024-0.023l0.091-0.135l0.088-0.113l0.046-0.068l0.046-0.045l0.091-0.136l0.092-0.113l0.021-0.044    l0.07-0.068l0.428-0.611l0,0l0.092-0.135l0.091-0.113l0.067-0.091c0.564-0.837,1.13-1.673,1.649-2.577    c1.2-1.99,2.264-4.094,3.165-6.265c-4.113-1.65-8.524-2.759-13.115-3.212l0,0l-0.295-0.021h-0.021l-0.183-0.022h-0.066    l-0.295-0.022h-0.112l-0.474-0.045h-0.024h-0.18l-0.07-0.023h-0.087h-0.158h-0.046l-0.137-0.022h-0.158l0,0h-0.157l-0.138-0.022    h-0.045h-0.158h-0.091h-0.067h-0.183h-0.042l-0.115-0.022h-0.18l0,0h-0.157h-0.137h-0.046h-0.158h-0.091h-0.067h-0.183h-0.042    h-0.115h-0.18h-0.477h-0.134h-0.34h-0.271h-0.204l-0.406,0.022h-0.067l-0.477,0.022h-0.067h-0.067l-0.544,0.046l-0.27,0.021    l-0.34,0.023h-0.112l-0.478,0.045h-0.021l-0.453,0.045h-0.158l-0.294,0.045l-0.295,0.023l-0.179,0.021l-0.432,0.068h-0.021    l-0.474,0.045l-0.091,0.023l-0.361,0.045l-0.228,0.045c-0.611,0.091-1.197,0.182-1.787,0.294l-0.27,0.067l-0.295,0.068    l-0.158,0.023l-0.428,0.09h-0.025c-9.089,1.99-17.207,6.559-23.538,12.891C221.042,100.105,217.49,105.351,215.072,111.162z     M270.111,105.26c-1.969,1.923-4.092,3.687-6.355,5.27l-0.158,0.113c-8.728,6.128-19.333,9.724-30.753,9.724    c-3.955,0-7.847-0.431-11.624-1.267c-2.758-0.61-5.45-1.447-8.026-2.465c-1.155,4.093-1.766,8.412-1.766,12.867    c0,13.184,5.338,25.146,13.975,33.762c8.64,8.66,20.601,13.998,33.785,13.998c13.115,0,25.009-5.293,33.649-13.84l0.134-0.137    c8.64-8.66,13.999-20.6,13.999-33.783c0-3.393-0.361-6.716-1.042-9.904c-7.167-0.09-14.042-1.605-20.307-4.275    C279.882,112.881,274.635,109.467,270.111,105.26z M275.313,99.427c-0.407,0.542-0.835,1.063-1.267,1.583    c4.025,3.753,8.707,6.828,13.838,9c5.089,2.17,10.605,3.459,16.417,3.73l-0.042-0.113l-0.046-0.135l-0.091-0.25l-0.046-0.157    l-0.045-0.091l-0.092-0.271l-0.066-0.203l-0.021-0.045l-0.115-0.25L303.648,112v-0.023l-0.092-0.249l-0.112-0.249v-0.021    l-0.203-0.475l-0.024-0.068l-0.092-0.182l-0.087-0.248l-0.046-0.113l-0.07-0.137l-0.179-0.384l-0.046-0.112l-0.112-0.249    l-0.07-0.181l-0.046-0.068l-0.112-0.226l-0.112-0.227v-0.022l-0.112-0.248l-0.137-0.227v-0.023l-0.112-0.227l-0.112-0.248    l-0.024-0.045l-0.112-0.182l-0.112-0.248l-0.046-0.068c-0.27-0.52-0.544-1.018-0.835-1.516l-0.024-0.044l-0.271-0.453v-0.021    l-0.273-0.453l-0.021-0.022l-0.249-0.43l-0.046-0.068l-0.315-0.475l-0.066-0.136c-1.856-2.849-4.005-5.495-6.401-7.913    c-3.166-3.167-6.806-5.902-10.764-8.096c-0.993,2.373-2.169,4.635-3.461,6.783c-0.54,0.904-1.105,1.764-1.694,2.623l-0.021,0.045    l-0.432,0.611l-0.066,0.113l-0.067,0.09l-0.091,0.113l-0.07,0.09l-0.066,0.113l-0.066,0.091l-0.025,0.022l-0.066,0.091    l-0.066,0.112l-0.092,0.091l-0.066,0.091v0.022l-0.07,0.091l-0.091,0.113l-0.066,0.09l-0.092,0.112l0,0l-0.066,0.091l-0.092,0.113    L275.313,99.427z M228.865,203.74l-1.4,26.978h61.666l-0.927-27.724l-29.171,26.074c-1.063,1.018-2.758,1.04-3.846,0    L228.865,203.74z M293.695,202.113l1.063,31.318c0.046,1.516-1.151,2.805-2.667,2.85h-67.547c-1.513,0-2.758-1.244-2.758-2.781    l1.628-31.637l-33.761,14.723c3.324,6.986,5.201,14.811,5.201,23.064c0,14.428-5.721,27.521-15.014,37.153h158.043    c-9.294-9.633-15.017-22.726-15.017-37.153c0-8.096,1.811-15.762,5.021-22.635L293.695,202.113z M279.271,203.537V179.16    c-6.198,2.51-12.981,3.891-20.082,3.891c-7.667,0-14.971-1.605-21.572-4.523v25.914l19.583,18.838L279.271,203.537z     M45.655,411.715c-1.516,0-2.783-1.244-2.783-2.781c0-1.539,1.267-2.781,2.783-2.781h304.961c1.513,0,2.779,1.242,2.779,2.781    c0,1.537-1.267,2.781-2.779,2.781H45.655z M224.229,430.257c-1.537,0-2.779-1.244-2.779-2.781c0-1.516,1.242-2.781,2.779-2.781    h211.026c1.516,0,2.783,1.266,2.783,2.781c0,1.537-1.268,2.781-2.783,2.781H224.229z M456.853,430.257    c-1.537,0-2.783-1.244-2.783-2.781c0-1.516,1.246-2.781,2.783-2.781h26.366c1.537,0,2.78,1.266,2.78,2.781    c0,1.537-1.243,2.781-2.78,2.781H456.853z M33.645,429.715c-1.537,0-2.779-1.267-2.779-2.781c0-1.539,1.242-2.783,2.779-2.783    h99.996c1.537,0,2.78,1.244,2.78,2.783c0,1.515-1.243,2.781-2.78,2.781H33.645z M31.564,373.113c0,1.538-1.264,2.781-2.78,2.781    c-1.537,0-2.783-1.243-2.783-2.781v-50.676c0-1.221,0.793-2.262,1.877-2.623l55.243-22.907c1.404-0.588,3.032,0.091,3.618,1.492    c0.59,1.425-0.091,3.054-1.491,3.618l-53.685,22.274V373.113z M332.321,221.312c2.372,0.949,4.839,1.718,7.37,2.284    c3.326,0.746,6.783,1.13,10.402,1.13c10.198,0,19.652-3.21,27.408-8.638l0.158-0.113c2.691-1.922,5.201-4.093,7.44-6.513v-0.022    l0.046-0.045l0.042-0.046l0.069-0.067l0.047-0.046l0.111-0.112l0.046-0.068l0.046-0.045l0.088-0.113l0.115-0.113l0.046-0.045    l0.042-0.068l0.115-0.113l0.088-0.113l0.025-0.021l0.066-0.068l0.092-0.113l0.111-0.111v-0.023l0.092-0.09l0.091-0.113    l0.091-0.113l0.113-0.113l0.091-0.113l0.067-0.091l0.021-0.044l0.091-0.113l0.113-0.113l0.045-0.046l0.046-0.067l0.091-0.113    l0.092-0.113l0.045-0.045l0.043-0.068l0.091-0.112l0.091-0.113l0.021-0.022l0.07-0.113l0.088-0.113l0.091-0.113l0,0l0.091-0.113    l0.092-0.135l0.092-0.09l0.021-0.023l0.067-0.113l0.091-0.113l0.066-0.067l0.024-0.068l0.092-0.112    c0.901-1.199,1.74-2.443,2.509-3.754c0.972-1.605,1.832-3.256,2.622-4.952l0.045-0.113l0.52-1.222    c-4.113-1.65-8.524-2.735-13.115-3.188l0,0l-0.295-0.023h-0.041l-0.162-0.023l-0.383-0.021l-0.111-0.022l-0.656-0.046h-0.092    h-0.066l-0.183-0.021h-0.046h-0.112h-0.157h-0.021l-0.162-0.023h-0.133h-0.024h-0.179h-0.07l-0.088-0.022h-0.158h-0.045h-0.138    h-0.157l0,0h-0.158l-0.137-0.022h-0.046h-0.158h-0.091h-0.088h-0.158h-0.045h-0.137h-0.158h-0.475h-0.137l-0.34,0.022h-0.291    h-0.184l-0.428,0.022h-0.045l-0.479,0.023h-0.087h-0.046l-0.564,0.021l-0.25,0.023l-0.361,0.022l-0.115,0.022l-0.475,0.021v0.023    l-0.452,0.023l-0.158,0.021l-0.315,0.023l-0.295,0.045l-0.158,0.022l-0.428,0.045h-0.046l-0.452,0.068l-0.113,0.022l-0.361,0.045    l-0.229,0.023l-0.586,0.113h-0.091l-0.452,0.09h-0.047l-0.586,0.113l-0.273,0.045l-0.315,0.068l-0.544,0.112h-0.046v0.022h-0.042    c-9.068,1.99-17.186,6.559-23.521,12.89C338.266,210.254,334.739,215.5,332.321,221.312z" style="fill-rule:evenodd;clip-rule:evenodd;"/></g></g><g id="Layer_1"/></svg>