<svg width="27" height="28" viewBox="0 0 27 28" fill="none" xmlns="http://www.w3.org/2000/svg">
<path d="M13.5384 19.5983C14.122 19.5983 14.6817 19.3665 15.0943 18.9538C15.507 18.5412 15.7388 17.9815 15.7388 17.3979C15.7388 16.8143 15.507 16.2546 15.0943 15.8419C14.6817 15.4292 14.122 15.1974 13.5384 15.1974C12.9548 15.1974 12.3951 15.4292 11.9824 15.8419C11.5698 16.2546 11.3379 16.8143 11.3379 17.3979C11.3379 17.9815 11.5698 18.5412 11.9824 18.9538C12.3951 19.3665 12.9548 19.5983 13.5384 19.5983ZM20.1398 9.69628C20.7233 9.69628 21.283 9.92811 21.6957 10.3408C22.1084 10.7534 22.3402 11.3131 22.3402 11.8967V22.899C22.3402 23.4826 22.1084 24.0423 21.6957 24.455C21.283 24.8676 20.7233 25.0995 20.1398 25.0995H6.93703C6.35343 25.0995 5.79374 24.8676 5.38107 24.455C4.96841 24.0423 4.73657 23.4826 4.73657 22.899V11.8967C4.73657 11.3131 4.96841 10.7534 5.38107 10.3408C5.79374 9.92811 6.35343 9.69628 6.93703 9.69628H8.03725V7.49583C8.03725 6.03683 8.61684 4.6376 9.6485 3.60594C10.6802 2.57427 12.0794 1.99469 13.5384 1.99469C14.2608 1.99469 14.9762 2.13698 15.6436 2.41344C16.311 2.6899 16.9175 3.09511 17.4283 3.60594C17.9391 4.11676 18.3443 4.7232 18.6208 5.39063C18.8972 6.05806 19.0395 6.77341 19.0395 7.49583V9.69628H20.1398ZM13.5384 4.19514C12.663 4.19514 11.8235 4.54289 11.2045 5.16189C10.5855 5.78089 10.2377 6.62043 10.2377 7.49583V9.69628H16.8391V7.49583C16.8391 6.62043 16.4913 5.78089 15.8723 5.16189C15.2533 4.54289 14.4138 4.19514 13.5384 4.19514Z" fill="#C85A5A"/>
</svg>
