<?xml version="1.0" ?><!DOCTYPE svg  PUBLIC '-//W3C//DTD SVG 1.1//EN'  'http://www.w3.org/Graphics/SVG/1.1/DTD/svg11.dtd'><svg height="8.4666mm" style="shape-rendering:geometricPrecision; text-rendering:geometricPrecision; image-rendering:optimizeQuality; fill-rule:evenodd; clip-rule:evenodd" version="1.1" viewBox="0 0 846.66 846.66" width="8.4666mm" xml:space="preserve" xmlns="http://www.w3.org/2000/svg" xmlns:xlink="http://www.w3.org/1999/xlink"><defs><style type="text/css">
   <![CDATA[
    .fil0 {fill:white;fill-rule:nonzero}
   ]]>
  </style></defs><g id="Layer_x0020_1"><path class="fil0" d="M444.14 141.6l136.49 0c95.89,0 174.27,78.37 174.27,174.27l0 481.79 29.07 0c27.36,0 27.36,41.61 0,41.61 -240.43,0 -480.85,0 -721.28,0 -27.36,0 -27.36,-41.61 0,-41.61l29.07 0 0 -616c0,-95.89 78.38,-174.27 174.27,-174.27l157.3 0c11.49,0 20.81,9.32 20.81,20.81l0 113.4zm-141.02 656.06l0 -166.14 -70.34 0 0 166.14 70.34 0zm-111.95 0l0 -186.94c0,-11.49 9.32,-20.81 20.81,-20.81l111.95 0c11.48,0 20.8,9.32 20.8,20.81l0 186.94 57.8 0 0 -748.66 -136.5 0c-72.92,0 -132.66,59.74 -132.66,132.66l0 616 57.8 0zm9.42 -568.4c-27.37,0 -27.37,-41.61 0,-41.61l134.72 0c27.37,0 27.37,41.61 0,41.61l-134.72 0zm0 210.62c-27.37,0 -27.37,-41.61 0,-41.61l134.72 0c27.37,0 27.37,41.61 0,41.61l-134.72 0zm0 -105.31c-27.37,0 -27.37,-41.61 0,-41.61l134.72 0c27.37,0 27.37,41.61 0,41.61l-134.72 0zm243.55 463.09l269.15 0 0 -481.79c0,-72.92 -59.74,-132.66 -132.66,-132.66l-136.49 0 0 614.45zm44.41 -243.63l61.39 0c11.49,0 20.8,9.32 20.8,20.81l0 61.39c0,11.48 -9.31,20.8 -20.8,20.8l-61.39 0c-11.48,0 -20.8,-9.32 -20.8,-20.8l0 -61.39c0,-11.49 9.32,-20.81 20.8,-20.81zm40.58 41.61l-19.77 0 0 19.78 19.77 0 0 -19.78zm78.36 -41.61l61.38 0c11.49,0 20.81,9.32 20.81,20.81l0 61.39c0,11.48 -9.32,20.8 -20.81,20.8l-61.38 0c-11.49,0 -20.81,-9.32 -20.81,-20.8l0 -61.39c0,-11.49 9.32,-20.81 20.81,-20.81zm40.58 41.61l-19.78 0 0 19.78 19.78 0 0 -19.78zm-159.52 -186.43l61.39 0c11.49,0 20.8,9.31 20.8,20.8l0 61.39c0,11.48 -9.31,20.8 -20.8,20.8l-61.39 0c-11.48,0 -20.8,-9.32 -20.8,-20.8l0 -61.39c0,-11.49 9.32,-20.8 20.8,-20.8zm40.58 41.6l-19.77 0 0 19.78 19.77 0 0 -19.78zm78.36 -41.6l61.38 0c11.49,0 20.81,9.31 20.81,20.8l0 61.39c0,11.48 -9.32,20.8 -20.81,20.8l-61.38 0c-11.49,0 -20.81,-9.32 -20.81,-20.8l0 -61.39c0,-11.49 9.32,-20.8 20.81,-20.8zm40.58 41.6l-19.78 0 0 19.78 19.78 0 0 -19.78zm-159.52 -186.44l61.39 0c11.49,0 20.8,9.32 20.8,20.81l0 61.38c0,11.49 -9.31,20.81 -20.8,20.81l-61.39 0c-11.48,0 -20.8,-9.32 -20.8,-20.81l0 -61.38c0,-11.49 9.32,-20.81 20.8,-20.81zm40.58 41.61l-19.77 0 0 19.78 19.77 0 0 -19.78zm78.36 -41.61l61.38 0c11.49,0 20.81,9.32 20.81,20.81l0 61.38c0,11.49 -9.32,20.81 -20.81,20.81l-61.38 0c-11.49,0 -20.81,-9.32 -20.81,-20.81l0 -61.38c0,-11.49 9.32,-20.81 20.81,-20.81zm40.58 41.61l-19.78 0 0 19.78 19.78 0 0 -19.78z"/></g></svg>