<?xml version="1.0" ?><!DOCTYPE svg  PUBLIC '-//W3C//DTD SVG 1.1//EN'  'http://www.w3.org/Graphics/SVG/1.1/DTD/svg11.dtd'><svg enable-background="new 0 0 48 48" height="48px" id="Layer_3" version="1.1" viewBox="0 0 48 48" width="48px" xml:space="preserve" xmlns="http://www.w3.org/2000/svg" xmlns:xlink="http://www.w3.org/1999/xlink"><g><polygon fill="white"  points="27.75,9.652 27.75,1.304 20.38,1.304 20.38,9.652 15.245,9.652 24.278,19.174 32.886,9.652  "/><polygon fill="white" points="24.978,26.805 24.978,46.695 24.979,46.695 40.75,46.695 40.75,45.391 40.75,26.805 24.979,26.805  "/><polygon fill="white" points="7.25,26.805 7.25,46.695 7.25,46.695 23.021,46.695 23.021,45.391 23.021,26.805 7.25,26.805  "/><polygon fill="white" points="40.714,24.326 48,16.129 32.151,16.129 24.978,24.327 24.979,24.326  "/><polygon fill="white" points="0,16.129 7.286,24.326 23.021,24.326 23.022,24.326 15.849,16.129  "/></g></svg>