<?xml version="1.0" ?><svg fill="white" id="Layer_1" style="enable-background:new 0 0 100.4 100.4;" version="1.1" viewBox="0 0 100.4 100.4" xml:space="preserve" xmlns="http://www.w3.org/2000/svg" xmlns:xlink="http://www.w3.org/1999/xlink"><g><path d="M79.1,10.1H63.2V3.3c0-0.8-0.7-1.5-1.5-1.5H38c-0.8,0-1.5,0.7-1.5,1.5v6.8H19.7c-3.5,0-6.3,2.8-6.3,6.3v75.4   c0,3.5,2.8,6.3,6.3,6.3h59.5c3.5,0,6.3-2.8,6.3-6.3V16.4C85.4,12.9,82.6,10.1,79.1,10.1z M38,29.5h23.7c0.8,0,1.5-0.7,1.5-1.5v-6.5   h10.5v64.7H25.1V21.6h11.4V28C36.5,28.9,37.2,29.5,38,29.5z M60.2,4.8V20c0,0,0,0,0,0s0,0,0,0v6.5H39.5v-6.5c0,0,0,0,0,0s0,0,0,0   v-8.5c0,0,0,0,0,0s0,0,0,0V4.8L60.2,4.8L60.2,4.8z M82.4,91.7c0,1.8-1.5,3.3-3.3,3.3H19.7c-1.8,0-3.3-1.5-3.3-3.3V16.4   c0-1.8,1.5-3.3,3.3-3.3h16.8v5.5H23.6c-0.8,0-1.5,0.7-1.5,1.5v67.7c0,0.8,0.7,1.5,1.5,1.5h51.6c0.8,0,1.5-0.7,1.5-1.5V20.1   c0-0.8-0.7-1.5-1.5-1.5h-12v-5.5h15.9c1.8,0,3.3,1.5,3.3,3.3V91.7z"/><path d="M28.8,46.4c0,0.8,0.7,1.5,1.5,1.5h38.5c0.8,0,1.5-0.7,1.5-1.5s-0.7-1.5-1.5-1.5H30.3C29.5,44.9,28.8,45.6,28.8,46.4z"/><path d="M68.8,55.4H30.3c-0.8,0-1.5,0.7-1.5,1.5s0.7,1.5,1.5,1.5h38.5c0.8,0,1.5-0.7,1.5-1.5S69.6,55.4,68.8,55.4z"/><path d="M68.8,66.4H30.3c-0.8,0-1.5,0.7-1.5,1.5c0,0.8,0.7,1.5,1.5,1.5h38.5c0.8,0,1.5-0.7,1.5-1.5C70.3,67.1,69.6,66.4,68.8,66.4z   "/></g></svg>