<?xml version="1.0" ?><svg style="enable-background:new 0 0 24 24;" fill="white" version="1.1" viewBox="0 0 24 24" xml:space="preserve" xmlns="http://www.w3.org/2000/svg" xmlns:xlink="http://www.w3.org/1999/xlink"><style type="text/css">
	.st0{display:none;fill:"white"}
	.st1{display:inline;fill:"white"}
	.st2{opacity:0.2;fill:white;stroke:#000000;stroke-width:5.000000e-02;stroke-miterlimit:10;}
</style><g class="st0" id="grid_system"/><g id="_icons"><g><path d="M12,3c-5,0-9,4-9,9c0,1.8,0.6,3.6,1.6,5.1l-1.4,2.4c-0.2,0.3-0.2,0.7,0,1S3.6,21,4,21h8c5,0,9-4,9-9S17,3,12,3z M12,19    H5.8l0.9-1.5c0.2-0.4,0.2-0.8-0.1-1.1C5.6,15.2,5,13.6,5,12c0-3.9,3.1-7,7-7s7,3.1,7,7S15.9,19,12,19z"/><path d="M12.1,7.3h-0.1c-1,0-1.9,0.5-2.4,1.3C9.2,9.1,9.3,9.7,9.8,10c0.5,0.3,1.1,0.2,1.4-0.3c0.2-0.3,0.5-0.4,0.8-0.4h0.1    c0.5,0,0.9,0.4,0.9,0.9c0,0.4-0.3,0.8-0.6,0.9l-0.7,0.2c-0.4,0.1-0.7,0.5-0.7,0.9V13c0,0.6,0.4,1,1,1c0.5,0,1-0.4,1-0.9    c1.2-0.4,2-1.5,2-2.8C15,8.7,13.7,7.3,12.1,7.3z"/><circle cx="12" cy="16" r="1"/></g></g></svg>