<?xml version="1.0" ?><svg fill="none" height="24" viewBox="0 0 24 24" width="24" xmlns="http://www.w3.org/2000/svg"><path clip-rule="evenodd" d="M3 20C3 19.4477 3.44772 19 4 19H20C20.5523 19 21 19.4477 21 20C21 20.5523 20.5523 21 20 21H4C3.44772 21 3 20.5523 3 20Z" fill="black" fill-rule="evenodd"/><path clip-rule="evenodd" d="M16.6414 5.05564C16.5633 4.97753 16.4367 4.97753 16.3586 5.05564L14.9142 6.5L16.5 8.08579L17.9444 6.64142C18.0225 6.56332 18.0225 6.43669 17.9444 6.35858L16.6414 5.05564ZM15.0858 9.5L13.5 7.91422L6.44281 14.9714L6.17851 16.8215L8.0286 16.5572L15.0858 9.5ZM14.9444 3.64142C15.8035 2.78227 17.1965 2.78227 18.0556 3.64142L19.3586 4.94437C20.2177 5.80352 20.2177 7.19648 19.3586 8.05564L9.20711 18.2071C9.05411 18.3601 8.85562 18.4594 8.64142 18.49L5.14142 18.99C4.82983 19.0345 4.51546 18.9297 4.29289 18.7071C4.07033 18.4845 3.96554 18.1702 4.01005 17.8586L4.51005 14.3586C4.54065 14.1444 4.6399 13.9459 4.79289 13.7929L14.9444 3.64142Z" fill="white" fill-rule="evenodd"/></svg>